<mxfile host="app.diagrams.net" modified="2023-03-06T21:55:42.324Z" agent="5.0 (X11; Ubuntu)" etag="wYBld4yy2rjBw-aoEB7p" version="21.0.2" type="github">
  <diagram name="Page-1" id="e7e014a7-5840-1c2e-5031-d8a46d1fe8dd">
    <mxGraphModel dx="1600" dy="795" grid="1" gridSize="10" guides="1" tooltips="1" connect="1" arrows="1" fold="1" page="1" pageScale="1" pageWidth="1169" pageHeight="826" background="none" math="0" shadow="0">
      <root>
        <mxCell id="0" />
        <mxCell id="1" parent="0" />
        <mxCell id="DY8aSpXX826o3ovjYh4t-38" value="" style="edgeStyle=orthogonalEdgeStyle;rounded=0;orthogonalLoop=1;jettySize=auto;html=1;" edge="1" parent="1" source="DY8aSpXX826o3ovjYh4t-66">
          <mxGeometry relative="1" as="geometry">
            <mxPoint x="770" y="478" as="targetPoint" />
          </mxGeometry>
        </mxCell>
        <mxCell id="DY8aSpXX826o3ovjYh4t-39" value="" style="edgeStyle=orthogonalEdgeStyle;rounded=0;orthogonalLoop=1;jettySize=auto;html=1;" edge="1" parent="1" source="DY8aSpXX826o3ovjYh4t-73" target="DY8aSpXX826o3ovjYh4t-76">
          <mxGeometry relative="1" as="geometry" />
        </mxCell>
        <mxCell id="DY8aSpXX826o3ovjYh4t-40" style="edgeStyle=orthogonalEdgeStyle;rounded=0;orthogonalLoop=1;jettySize=auto;html=1;" edge="1" parent="1" source="DY8aSpXX826o3ovjYh4t-50" target="DY8aSpXX826o3ovjYh4t-66">
          <mxGeometry relative="1" as="geometry" />
        </mxCell>
        <mxCell id="DY8aSpXX826o3ovjYh4t-41" value="" style="edgeStyle=orthogonalEdgeStyle;rounded=0;orthogonalLoop=1;jettySize=auto;html=1;" edge="1" parent="1" source="DY8aSpXX826o3ovjYh4t-42" target="DY8aSpXX826o3ovjYh4t-45">
          <mxGeometry relative="1" as="geometry" />
        </mxCell>
        <mxCell id="DY8aSpXX826o3ovjYh4t-42" value="" style="ellipse;shape=startState;fillColor=#000000;strokeColor=#ff0000;" vertex="1" parent="1">
          <mxGeometry x="264.5" y="168" width="30" height="30" as="geometry" />
        </mxCell>
        <mxCell id="DY8aSpXX826o3ovjYh4t-43" value="" style="edgeStyle=orthogonalEdgeStyle;rounded=0;orthogonalLoop=1;jettySize=auto;html=1;" edge="1" parent="1" source="DY8aSpXX826o3ovjYh4t-45" target="DY8aSpXX826o3ovjYh4t-48">
          <mxGeometry relative="1" as="geometry" />
        </mxCell>
        <mxCell id="DY8aSpXX826o3ovjYh4t-44" value="" style="edgeStyle=orthogonalEdgeStyle;rounded=0;orthogonalLoop=1;jettySize=auto;html=1;" edge="1" parent="1" source="DY8aSpXX826o3ovjYh4t-45" target="DY8aSpXX826o3ovjYh4t-56">
          <mxGeometry relative="1" as="geometry" />
        </mxCell>
        <mxCell id="DY8aSpXX826o3ovjYh4t-45" value="Signup" style="" vertex="1" parent="1">
          <mxGeometry x="224.5" y="238" width="110" height="50" as="geometry" />
        </mxCell>
        <mxCell id="DY8aSpXX826o3ovjYh4t-46" value="" style="edgeStyle=orthogonalEdgeStyle;rounded=0;orthogonalLoop=1;jettySize=auto;html=1;" edge="1" parent="1" source="DY8aSpXX826o3ovjYh4t-48" target="DY8aSpXX826o3ovjYh4t-50">
          <mxGeometry relative="1" as="geometry" />
        </mxCell>
        <mxCell id="DY8aSpXX826o3ovjYh4t-47" value="" style="edgeStyle=orthogonalEdgeStyle;rounded=0;orthogonalLoop=1;jettySize=auto;html=1;" edge="1" parent="1" source="DY8aSpXX826o3ovjYh4t-48" target="DY8aSpXX826o3ovjYh4t-54">
          <mxGeometry relative="1" as="geometry" />
        </mxCell>
        <mxCell id="DY8aSpXX826o3ovjYh4t-48" value="Login" style="" vertex="1" parent="1">
          <mxGeometry x="224.5" y="348" width="110" height="50" as="geometry" />
        </mxCell>
        <mxCell id="DY8aSpXX826o3ovjYh4t-49" value="" style="edgeStyle=orthogonalEdgeStyle;rounded=0;orthogonalLoop=1;jettySize=auto;html=1;" edge="1" parent="1" source="DY8aSpXX826o3ovjYh4t-50" target="DY8aSpXX826o3ovjYh4t-52">
          <mxGeometry relative="1" as="geometry" />
        </mxCell>
        <mxCell id="DY8aSpXX826o3ovjYh4t-50" value="Verify Login" style="" vertex="1" parent="1">
          <mxGeometry x="224.5" y="453" width="110" height="50" as="geometry" />
        </mxCell>
        <mxCell id="DY8aSpXX826o3ovjYh4t-51" style="edgeStyle=orthogonalEdgeStyle;rounded=0;orthogonalLoop=1;jettySize=auto;html=1;exitX=0;exitY=0.5;exitDx=0;exitDy=0;entryX=-0.005;entryY=0.56;entryDx=0;entryDy=0;entryPerimeter=0;strokeColor=#FF0000;" edge="1" parent="1" source="DY8aSpXX826o3ovjYh4t-52" target="DY8aSpXX826o3ovjYh4t-50">
          <mxGeometry relative="1" as="geometry" />
        </mxCell>
        <mxCell id="DY8aSpXX826o3ovjYh4t-52" value="&lt;div&gt;Login&lt;/div&gt;&lt;div&gt;NOT&lt;/div&gt;&lt;div&gt;Verified&lt;br&gt;&lt;/div&gt;" style="rhombus;whiteSpace=wrap;html=1;fillColor=rgb(255, 255, 255);" vertex="1" parent="1">
          <mxGeometry x="239.5" y="568" width="80" height="80" as="geometry" />
        </mxCell>
        <mxCell id="DY8aSpXX826o3ovjYh4t-53" style="edgeStyle=orthogonalEdgeStyle;rounded=0;orthogonalLoop=1;jettySize=auto;html=1;exitX=0.5;exitY=0;exitDx=0;exitDy=0;entryX=0.705;entryY=0.02;entryDx=0;entryDy=0;entryPerimeter=0;strokeColor=#FF0000;" edge="1" parent="1" source="DY8aSpXX826o3ovjYh4t-54" target="DY8aSpXX826o3ovjYh4t-48">
          <mxGeometry relative="1" as="geometry" />
        </mxCell>
        <mxCell id="DY8aSpXX826o3ovjYh4t-54" value="&lt;div&gt;Login&lt;/div&gt;&lt;div&gt;Failed&lt;br&gt;&lt;/div&gt;" style="rhombus;whiteSpace=wrap;html=1;fillColor=rgb(255, 255, 255);" vertex="1" parent="1">
          <mxGeometry x="350" y="333" width="80" height="80" as="geometry" />
        </mxCell>
        <mxCell id="DY8aSpXX826o3ovjYh4t-55" style="edgeStyle=orthogonalEdgeStyle;rounded=0;orthogonalLoop=1;jettySize=auto;html=1;exitX=0.5;exitY=0;exitDx=0;exitDy=0;entryX=0.741;entryY=0;entryDx=0;entryDy=0;entryPerimeter=0;strokeColor=#FF3333;" edge="1" parent="1" source="DY8aSpXX826o3ovjYh4t-56" target="DY8aSpXX826o3ovjYh4t-45">
          <mxGeometry relative="1" as="geometry" />
        </mxCell>
        <mxCell id="DY8aSpXX826o3ovjYh4t-56" value="&lt;div&gt;Signup&lt;/div&gt;&lt;div&gt;Failed&lt;br&gt;&lt;/div&gt;" style="rhombus;whiteSpace=wrap;html=1;fillColor=rgb(255, 255, 255);" vertex="1" parent="1">
          <mxGeometry x="350" y="223" width="80" height="80" as="geometry" />
        </mxCell>
        <mxCell id="DY8aSpXX826o3ovjYh4t-57" value="" style="edgeStyle=orthogonalEdgeStyle;rounded=0;orthogonalLoop=1;jettySize=auto;html=1;" edge="1" parent="1" source="DY8aSpXX826o3ovjYh4t-58" target="DY8aSpXX826o3ovjYh4t-61">
          <mxGeometry relative="1" as="geometry" />
        </mxCell>
        <mxCell id="DY8aSpXX826o3ovjYh4t-58" value="" style="ellipse;shape=startState;fillColor=#000000;strokeColor=#ff0000;" vertex="1" parent="1">
          <mxGeometry x="510" y="168" width="30" height="30" as="geometry" />
        </mxCell>
        <mxCell id="DY8aSpXX826o3ovjYh4t-59" value="" style="edgeStyle=orthogonalEdgeStyle;rounded=0;orthogonalLoop=1;jettySize=auto;html=1;" edge="1" parent="1" source="DY8aSpXX826o3ovjYh4t-61" target="DY8aSpXX826o3ovjYh4t-70">
          <mxGeometry relative="1" as="geometry" />
        </mxCell>
        <mxCell id="DY8aSpXX826o3ovjYh4t-60" value="" style="edgeStyle=orthogonalEdgeStyle;rounded=0;orthogonalLoop=1;jettySize=auto;html=1;" edge="1" parent="1" source="DY8aSpXX826o3ovjYh4t-61" target="DY8aSpXX826o3ovjYh4t-64">
          <mxGeometry relative="1" as="geometry" />
        </mxCell>
        <mxCell id="DY8aSpXX826o3ovjYh4t-61" value="Login" style="" vertex="1" parent="1">
          <mxGeometry x="470" y="238" width="110" height="50" as="geometry" />
        </mxCell>
        <mxCell id="DY8aSpXX826o3ovjYh4t-62" value="" style="edgeStyle=orthogonalEdgeStyle;rounded=0;orthogonalLoop=1;jettySize=auto;html=1;" edge="1" parent="1" source="DY8aSpXX826o3ovjYh4t-64" target="DY8aSpXX826o3ovjYh4t-72">
          <mxGeometry relative="1" as="geometry" />
        </mxCell>
        <mxCell id="DY8aSpXX826o3ovjYh4t-63" value="" style="edgeStyle=orthogonalEdgeStyle;rounded=0;orthogonalLoop=1;jettySize=auto;html=1;" edge="1" parent="1" source="DY8aSpXX826o3ovjYh4t-64" target="DY8aSpXX826o3ovjYh4t-66">
          <mxGeometry relative="1" as="geometry" />
        </mxCell>
        <mxCell id="DY8aSpXX826o3ovjYh4t-64" value="Verify Login" style="" vertex="1" parent="1">
          <mxGeometry x="470" y="348" width="110" height="50" as="geometry" />
        </mxCell>
        <mxCell id="DY8aSpXX826o3ovjYh4t-65" style="edgeStyle=orthogonalEdgeStyle;rounded=0;orthogonalLoop=1;jettySize=auto;html=1;entryX=-0.009;entryY=0.48;entryDx=0;entryDy=0;entryPerimeter=0;strokeColor=#000000;" edge="1" parent="1" source="DY8aSpXX826o3ovjYh4t-66" target="DY8aSpXX826o3ovjYh4t-68">
          <mxGeometry relative="1" as="geometry" />
        </mxCell>
        <mxCell id="DY8aSpXX826o3ovjYh4t-66" value="Menu" style="" vertex="1" parent="1">
          <mxGeometry x="470" y="453" width="110" height="50" as="geometry" />
        </mxCell>
        <mxCell id="DY8aSpXX826o3ovjYh4t-67" value="" style="edgeStyle=orthogonalEdgeStyle;rounded=0;orthogonalLoop=1;jettySize=auto;html=1;" edge="1" parent="1" source="DY8aSpXX826o3ovjYh4t-68" target="DY8aSpXX826o3ovjYh4t-73">
          <mxGeometry relative="1" as="geometry" />
        </mxCell>
        <mxCell id="DY8aSpXX826o3ovjYh4t-68" value="Books" style="fillColor=rgb(255, 255, 255);strokeColor=rgb(0, 0, 0);fontColor=rgb(0, 0, 0);" vertex="1" parent="1">
          <mxGeometry x="580" y="520" width="110" height="50" as="geometry" />
        </mxCell>
        <mxCell id="DY8aSpXX826o3ovjYh4t-69" style="edgeStyle=orthogonalEdgeStyle;rounded=0;orthogonalLoop=1;jettySize=auto;html=1;exitX=0.5;exitY=0;exitDx=0;exitDy=0;entryX=0.723;entryY=0.02;entryDx=0;entryDy=0;entryPerimeter=0;strokeColor=#FF0000;" edge="1" parent="1" source="DY8aSpXX826o3ovjYh4t-70" target="DY8aSpXX826o3ovjYh4t-61">
          <mxGeometry relative="1" as="geometry" />
        </mxCell>
        <mxCell id="DY8aSpXX826o3ovjYh4t-70" value="&lt;div&gt;Login&lt;/div&gt;&lt;div&gt;Failed&lt;br&gt;&lt;/div&gt;" style="rhombus;whiteSpace=wrap;html=1;fillColor=rgb(255, 255, 255);" vertex="1" parent="1">
          <mxGeometry x="620.5" y="223" width="80" height="80" as="geometry" />
        </mxCell>
        <mxCell id="DY8aSpXX826o3ovjYh4t-71" style="edgeStyle=orthogonalEdgeStyle;rounded=0;orthogonalLoop=1;jettySize=auto;html=1;exitX=0.5;exitY=0;exitDx=0;exitDy=0;entryX=0.686;entryY=0;entryDx=0;entryDy=0;entryPerimeter=0;strokeColor=#FF0000;" edge="1" parent="1" source="DY8aSpXX826o3ovjYh4t-72" target="DY8aSpXX826o3ovjYh4t-64">
          <mxGeometry relative="1" as="geometry" />
        </mxCell>
        <mxCell id="DY8aSpXX826o3ovjYh4t-72" value="&lt;div&gt;Login&lt;/div&gt;&lt;div&gt;NOT&lt;br&gt;&lt;/div&gt;&lt;div&gt;Verified&lt;br&gt;&lt;/div&gt;" style="rhombus;whiteSpace=wrap;html=1;fillColor=rgb(255, 255, 255);" vertex="1" parent="1">
          <mxGeometry x="620.5" y="333" width="80" height="80" as="geometry" />
        </mxCell>
        <mxCell id="DY8aSpXX826o3ovjYh4t-73" value="Sort by Genre" style="fillColor=rgb(255, 255, 255);strokeColor=rgb(0, 0, 0);fontColor=rgb(0, 0, 0);" vertex="1" parent="1">
          <mxGeometry x="580" y="610" width="110" height="50" as="geometry" />
        </mxCell>
        <mxCell id="DY8aSpXX826o3ovjYh4t-74" value="" style="ellipse;shape=endState;fillColor=#000000;strokeColor=#ff0000" vertex="1" parent="1">
          <mxGeometry x="995" y="620" width="30" height="30" as="geometry" />
        </mxCell>
        <mxCell id="DY8aSpXX826o3ovjYh4t-75" style="edgeStyle=orthogonalEdgeStyle;rounded=0;orthogonalLoop=1;jettySize=auto;html=1;entryX=0;entryY=0.5;entryDx=0;entryDy=0;" edge="1" parent="1" source="DY8aSpXX826o3ovjYh4t-76" target="DY8aSpXX826o3ovjYh4t-74">
          <mxGeometry relative="1" as="geometry" />
        </mxCell>
        <mxCell id="DY8aSpXX826o3ovjYh4t-76" value="Pick Genre" style="fillColor=rgb(255, 255, 255);strokeColor=rgb(0, 0, 0);fontColor=rgb(0, 0, 0);" vertex="1" parent="1">
          <mxGeometry x="770" y="610" width="110" height="50" as="geometry" />
        </mxCell>
        <mxCell id="DY8aSpXX826o3ovjYh4t-77" value="" style="edgeStyle=orthogonalEdgeStyle;rounded=0;orthogonalLoop=1;jettySize=auto;html=1;entryX=0.5;entryY=1.02;entryDx=0;entryDy=0;entryPerimeter=0;" edge="1" parent="1" source="DY8aSpXX826o3ovjYh4t-78" target="DY8aSpXX826o3ovjYh4t-81">
          <mxGeometry relative="1" as="geometry">
            <mxPoint x="825" y="380" as="targetPoint" />
          </mxGeometry>
        </mxCell>
        <mxCell id="DY8aSpXX826o3ovjYh4t-78" value="Search Bar" style="fillColor=rgb(255, 255, 255);strokeColor=rgb(0, 0, 0);fontColor=rgb(0, 0, 0);" vertex="1" parent="1">
          <mxGeometry x="770" y="453" width="110" height="50" as="geometry" />
        </mxCell>
        <mxCell id="DY8aSpXX826o3ovjYh4t-79" value="" style="edgeStyle=orthogonalEdgeStyle;rounded=0;orthogonalLoop=1;jettySize=auto;html=1;entryX=-0.045;entryY=0.5;entryDx=0;entryDy=0;entryPerimeter=0;" edge="1" parent="1" source="DY8aSpXX826o3ovjYh4t-81" target="DY8aSpXX826o3ovjYh4t-83">
          <mxGeometry relative="1" as="geometry" />
        </mxCell>
        <mxCell id="DY8aSpXX826o3ovjYh4t-80" value="" style="edgeStyle=orthogonalEdgeStyle;rounded=0;orthogonalLoop=1;jettySize=auto;html=1;" edge="1" parent="1" source="DY8aSpXX826o3ovjYh4t-81" target="DY8aSpXX826o3ovjYh4t-85">
          <mxGeometry relative="1" as="geometry" />
        </mxCell>
        <mxCell id="DY8aSpXX826o3ovjYh4t-81" value="Search Book" style="fillColor=rgb(255, 255, 255);strokeColor=rgb(0, 0, 0);fontColor=rgb(0, 0, 0);" vertex="1" parent="1">
          <mxGeometry x="770" y="323" width="110" height="50" as="geometry" />
        </mxCell>
        <mxCell id="DY8aSpXX826o3ovjYh4t-82" style="edgeStyle=orthogonalEdgeStyle;rounded=0;orthogonalLoop=1;jettySize=auto;html=1;entryX=0.5;entryY=0;entryDx=0;entryDy=0;" edge="1" parent="1" target="DY8aSpXX826o3ovjYh4t-74">
          <mxGeometry relative="1" as="geometry">
            <mxPoint x="1010" y="360" as="sourcePoint" />
          </mxGeometry>
        </mxCell>
        <mxCell id="DY8aSpXX826o3ovjYh4t-83" value="Book Found" style="fillColor=rgb(255, 255, 255);strokeColor=rgb(0, 0, 0);fontColor=rgb(0, 0, 0);" vertex="1" parent="1">
          <mxGeometry x="955" y="323" width="110" height="50" as="geometry" />
        </mxCell>
        <mxCell id="DY8aSpXX826o3ovjYh4t-84" style="edgeStyle=orthogonalEdgeStyle;rounded=0;orthogonalLoop=1;jettySize=auto;html=1;strokeColor=#FF0000;" edge="1" parent="1" source="DY8aSpXX826o3ovjYh4t-85">
          <mxGeometry relative="1" as="geometry">
            <mxPoint x="780" y="320" as="targetPoint" />
          </mxGeometry>
        </mxCell>
        <mxCell id="DY8aSpXX826o3ovjYh4t-85" value="&lt;div&gt;Book&lt;/div&gt;&lt;div&gt;Not&lt;/div&gt;&lt;div&gt;Found&lt;br&gt;&lt;/div&gt;" style="rhombus;whiteSpace=wrap;html=1;fillColor=rgb(255, 255, 255);strokeColor=rgb(0, 0, 0);fontColor=rgb(0, 0, 0);" vertex="1" parent="1">
          <mxGeometry x="830" y="198" width="80" height="72" as="geometry" />
        </mxCell>
      </root>
    </mxGraphModel>
  </diagram>
</mxfile>
